<?xml version="1.0" standalone="no"?>
<!DOCTYPE svg PUBLIC "-//W3C//DTD SVG 20010904//EN"
 "http://www.w3.org/TR/2001/REC-SVG-20010904/DTD/svg10.dtd">
<svg version="1.0" xmlns="http://www.w3.org/2000/svg"
 width="1566.000000pt" height="1566.000000pt" viewBox="0 0 1566.000000 1566.000000"
 preserveAspectRatio="xMidYMid meet">
<metadata>
Created by potrace 1.11, written by Peter Selinger 2001-2013
</metadata>
<g transform="translate(0.000000,1566.000000) scale(0.100000,-0.100000)"
fill="#000000" stroke="none">
<path d="M11078 14858 c-19 -40 -239 -517 -489 -1060 l-454 -986 -35 15 c-617
274 -1231 427 -1895 474 -216 15 -747 6 -939 -15 -581 -66 -1095 -199 -1603
-416 l-184 -78 -33 71 c-97 212 -959 2023 -965 2030 -5 4 -93 -35 -197 -87
-1045 -524 -1980 -1305 -2701 -2256 -826 -1090 -1351 -2376 -1522 -3730 -46
-364 -55 -527 -56 -985 0 -448 6 -566 46 -915 166 -1454 748 -2843 1673 -3995
331 -413 785 -867 1201 -1202 1121 -902 2461 -1473 3900 -1662 357 -47 519
-56 1005 -56 486 0 648 9 1005 56 1094 143 2117 502 3050 1067 281 171 600
394 850 595 416 335 870 790 1201 1202 954 1188 1541 2624 1688 4130 55 559
46 1199 -24 1760 -323 2578 -1938 4858 -4255 6006 -121 60 -223 109 -226 109
-4 0 -22 -33 -41 -72z m-2813 -3313 c265 -35 481 -90 752 -191 98 -36 248 -91
333 -121 288 -102 292 -104 423 -169 379 -191 698 -497 864 -829 63 -125 122
-281 127 -335 1 -9 5 -20 8 -25 11 -18 21 -85 12 -85 -4 0 -112 27 -240 60
-128 33 -234 60 -236 60 -2 0 4 -53 14 -117 9 -65 17 -169 17 -231 l1 -112
-138 120 -138 119 -13 83 c-60 404 -260 760 -574 1024 -339 285 -750 458
-1271 533 -76 11 -141 22 -143 25 -3 2 10 50 28 105 23 70 38 101 49 101 8 0
65 -7 125 -15z m-2308 -2011 l90 -7 9 -103 c6 -57 12 -106 15 -108 2 -2 157
-25 344 -50 206 -29 342 -52 347 -59 4 -7 8 -19 8 -28 0 -8 11 -47 24 -85 75
-220 206 -370 419 -479 59 -30 101 -55 93 -55 -9 0 -140 11 -292 26 -152 14
-281 23 -287 21 -15 -5 132 -51 299 -93 158 -39 376 -80 639 -119 492 -72
1080 -213 1422 -341 71 -27 113 -36 180 -39 354 -19 450 -28 493 -45 63 -25
169 -74 275 -127 406 -203 725 -566 865 -983 22 -65 61 -213 57 -216 -7 -5
-468 -35 -475 -31 -4 3 -2 -27 4 -66 14 -81 35 -364 30 -414 -1 -18 -3 -51 -4
-73 l-2 -40 -74 0 c-40 0 -100 3 -133 6 l-60 7 5 66 c6 89 -14 323 -39 444
-67 333 -228 623 -476 857 -307 291 -896 528 -1723 694 -124 25 -274 53 -335
63 -60 10 -111 21 -113 24 -2 4 -11 5 -21 2 -31 -8 -444 66 -632 113 -228 57
-386 111 -524 180 -136 67 -221 130 -322 238 -175 188 -269 419 -288 714 l-7
112 49 0 c28 0 90 -3 140 -6z m-156 -3357 l12 -78 71 6 c39 4 89 8 111 10 22
2 76 6 120 10 44 4 96 8 115 10 19 2 64 6 100 9 36 3 93 8 126 10 l61 6 17
-67 c19 -79 71 -203 118 -280 81 -135 237 -264 415 -344 49 -21 84 -39 78 -39
-5 0 -156 -21 -334 -47 -367 -54 -354 -43 -146 -112 119 -39 332 -91 374 -91
11 0 21 -4 21 -9 0 -4 10 -6 23 -4 12 2 32 1 44 -4 l21 -8 -36 -114 -36 -113
-61 7 c-222 25 -583 130 -799 233 -162 78 -251 138 -351 237 -191 189 -307
443 -350 766 l-6 46 133 115 133 115 7 -96 c4 -53 12 -131 19 -174z"/>
<path d="M6620 8646 c0 -2 7 -7 16 -10 8 -3 12 -2 9 4 -6 10 -25 14 -25 6z"/>
<path d="M9273 7993 c9 -2 25 -2 35 0 9 3 1 5 -18 5 -19 0 -27 -2 -17 -5z"/>
<path d="M9443 7983 c9 -2 25 -2 35 0 9 3 1 5 -18 5 -19 0 -27 -2 -17 -5z"/>
<path d="M9623 7973 c9 -2 25 -2 35 0 9 3 1 5 -18 5 -19 0 -27 -2 -17 -5z"/>
<path d="M10838 6723 c12 -2 30 -2 40 0 9 3 -1 5 -23 4 -22 0 -30 -2 -17 -4z"/>
<path d="M10688 6713 c12 -2 32 -2 45 0 12 2 2 4 -23 4 -25 0 -35 -2 -22 -4z"/>
<path d="M10548 6703 c12 -2 30 -2 40 0 9 3 -1 5 -23 4 -22 0 -30 -2 -17 -4z"/>
</g>
</svg>
